# xmcd
#
# Track frame offsets:
#	151
#	16169
#	29146
#	43177
#	58250
#	73827
#	90785
#	104399
#	120046
#	141177
#	157700
#	171108
#	182990
#	192502
#	207676
#	221401
#
# Disc length: 3172 seconds
#
# Revision: 0
# Processed by: cddbd v1.5.1PL0 Copyright (c) Steve Scherf et al.
# Submitted via: dBpowerAMP V4.0
#
DISCID=e40c6210
DTITLE=สหกรณ์ลูกทุ่ง ชุด 7 - 16 เพลงสุดยอด จาก ศรเพชร ศรสุพรรณ
DYEAR=1900
DGENRE=Easy Listening
TTITLE0=เข้าเวรรอ
TTITLE1=มอเตอร์ไซค์ทำหล่น
TTITLE2=อภัยให้เรียม
TTITLE3=หยิกแกมหยอก
TTITLE4=ใจจะขาด
TTITLE5=ไอ้หวังตายแน่
TTITLE6=ลิ้นมหาเสน่ห์
TTITLE7=แม้พี่นี้จะขี้เมา
TTITLE8=ข้าวไม่มีขาย
TTITLE9=สาวผักไห่
TTITLE10=เมาเหล้าเมารัก
TTITLE11=หลังคาแดง
TTITLE12=30 ยังแจ๋ว
TTITLE13=แบ่งกันคนละครึ่ง
TTITLE14=เด็กมันยั่ว
TTITLE15=เมียไม่มาเมียไม่มี
EXTD=
EXTT0=
EXTT1=
EXTT2=
EXTT3=
EXTT4=
EXTT5=
EXTT6=
EXTT7=
EXTT8=
EXTT9=
EXTT10=
EXTT11=
EXTT12=
EXTT13=
EXTT14=
EXTT15=
PLAYORDER=
